<svg xmlns="http://www.w3.org/2000/svg" width="214" height="27" viewBox="0 0 214 27" fill="none">
  <g clip-path="url(#clip0_1223_5442)">
    <path d="M61.3808 19.4283C61.2835 19.8855 60.8995 20.1219 60.4939 20.4766L67.9407 20.4819C67.5594 20.0851 67.1457 19.7804 67.0214 19.318C66.7618 18.3485 66.7158 17.4185 66.7185 16.3939L66.751 2.85842C66.7537 1.87847 66.851 0.987837 66.9132 0.00262723L60.502 0.659434C61.0158 1.19276 61.3294 1.74711 61.4133 2.44332C61.489 3.06072 61.6485 3.6571 61.6485 4.31128V17.6733C61.6485 18.2855 61.5025 18.8609 61.3808 19.4283ZM93.0555 7.15656C91.5548 6.23441 89.5538 6.25542 88.026 7.10927C87.0039 7.67675 86.2928 8.65671 86.017 9.79693C86.7606 9.148 87.5042 8.7618 88.4668 9.01664C89.1969 9.21105 89.8675 9.81006 90.1027 10.6744C90.6814 12.8156 90.6408 15.0304 90.3055 17.2346C90.1703 18.1173 89.9351 18.937 89.4159 19.6569C89.0427 20.1745 88.41 20.2953 87.7935 20.269C86.8768 20.2296 86.1278 19.7147 85.9034 18.8241C85.679 17.9466 85.6087 17.0665 85.6087 16.1233L85.6303 4.48993L85.8169 0L79.3759 0.664688C79.7464 1.06665 80.0898 1.45548 80.2088 1.97305C80.3737 2.67189 80.5197 3.39175 80.5224 4.11949L80.5522 9.9493L80.5143 18.0385L80.3169 20.7419L83.4536 19.7094C83.7267 19.6201 84.0457 19.7252 84.2891 19.8645C86.2522 20.9915 88.7588 20.9837 90.9031 20.3794C92.8148 19.8408 94.2317 18.5325 95.0023 16.7643C96.2678 13.8691 96.1948 9.08232 93.0555 7.15656ZM212.948 18.3958C212.767 17.5814 212.505 16.8064 212.505 15.9446V4.49256L212.691 0.00262723L206.337 0.654179C206.951 1.43972 207.213 2.24891 207.348 3.19208C207.467 4.45315 207.475 5.70371 207.446 6.98579C205.68 6.19763 203.457 6.41306 201.762 7.00681C198.068 8.30203 196.932 12.2928 197.392 15.7345C197.587 17.1926 198.163 18.5456 199.277 19.5623C200.415 20.6001 202.013 20.9784 203.549 20.6868C205.274 20.361 206.694 19.1236 207.056 17.3922C206.448 17.9623 205.864 18.3459 205.101 18.3118C204.395 18.2776 203.698 17.9387 203.3 17.295C202.213 15.54 202.454 11.3417 202.897 9.28987C203.027 8.68298 203.319 8.08397 203.652 7.57955C203.99 7.06724 204.655 6.94901 205.236 6.98054C206.188 7.03308 206.953 7.6137 207.175 8.5306C207.351 9.26097 207.448 10.015 207.448 10.79L207.467 20.7288L214 19.4546C213.554 19.1078 213.24 18.8109 212.948 18.3958ZM39.7569 1.33463C38.7213 0.706724 37.418 0.730369 36.3958 1.37667C35.6333 1.85745 35.3981 2.69816 35.5901 3.5704C35.755 4.32179 36.4607 4.8052 37.3044 5.03114C38.6131 5.38319 40.3275 4.85511 40.6384 3.50735C40.8304 2.67714 40.5357 1.8049 39.7569 1.33463ZM59.2447 4.51883C59.3555 3.78583 59.1798 3.04758 58.5822 2.53002L55.1941 3.58616C55.8052 4.55824 55.7998 5.70108 55.0778 6.54705C54.6857 7.00681 54.2179 7.04097 53.669 6.87545C51.276 6.15822 48.7531 6.3395 46.5872 7.50336C45 8.35983 44.0914 9.82582 44.086 11.5861C44.0806 13.9453 45.5083 15.2116 47.5309 16.2152L44.324 18.4536C44.1401 20.4319 45.603 21.9295 47.5877 21.9347L52.0899 21.9478C52.9633 21.9505 53.7988 22.003 54.6154 22.2526C55.5618 22.539 56.0296 23.4375 55.7619 24.3439C55.5348 25.1031 55.0183 25.6654 54.2395 25.9386C52.3116 26.6191 50.2025 26.7163 48.2799 26.0306C47.4363 25.7311 46.763 25.1452 46.6116 24.294C46.4818 23.561 46.809 22.9567 47.2551 22.2762C45.9193 22.158 43.5452 22.8647 43.6507 24.3649C43.7426 25.6943 45.822 26.4062 47.0118 26.6243C48.8288 26.9553 50.6703 27.0604 52.5144 26.9238C55.551 26.7005 58.958 25.0059 58.6146 21.6457C58.3496 19.0369 55.9268 18.1042 53.4959 18.0963L47.5877 18.0753C47.4525 18.0753 47.2281 17.9387 47.1659 17.8494C46.9279 17.5131 47.6418 16.7144 47.9365 16.4727C48.3556 16.1312 51.6194 17.7233 55.3049 15.6241C56.7083 14.8254 57.5465 13.5407 57.6817 11.9854C57.8196 10.3854 57.1734 8.91943 55.8457 7.94473L55.021 7.33784C56.6813 6.87282 58.9797 6.30797 59.2447 4.51883ZM52.39 14.4261C52.2061 15.3351 51.7897 16.3335 50.7325 16.2546C49.1155 16.1364 49.2344 12.7184 49.1939 12.3086L49.1046 11.3943C49.0235 10.5667 49.248 9.76803 49.3426 8.93257C49.4102 8.33619 49.5887 7.74769 50.0105 7.31682C50.5486 6.76773 51.4058 6.83079 51.8763 7.43242C52.2467 7.91058 52.4116 8.49645 52.4901 9.10334C52.7253 10.8951 52.7469 12.6527 52.39 14.4261ZM161.25 2.53002L157.849 3.58616C158.463 4.574 158.463 5.74574 157.692 6.58908C157.362 6.94638 156.943 7.04885 156.486 6.91486C153.863 6.14508 151.159 6.28958 148.85 7.74769C147.479 8.61467 146.752 10.0071 146.746 11.5834C146.741 13.856 148.074 15.1696 150.077 16.1548C149.207 17.1321 148.122 17.7889 146.995 18.4352C146.773 20.3846 148.228 21.9189 150.172 21.9295L155.131 21.9557C155.918 21.961 156.7 22.0424 157.408 22.313C158.333 22.6677 158.711 23.6004 158.371 24.4779C158.065 25.2713 157.43 25.8283 156.564 26.0962C154.658 26.6926 152.549 26.6269 150.683 25.9202C149.934 25.6338 149.437 24.9954 149.293 24.3807C149.109 23.5977 149.431 22.9646 149.937 22.2789C148.647 22.1607 146.397 22.7938 146.308 24.1967C146.224 25.513 148.017 26.2197 149.174 26.4929C151.602 27.0709 154.09 27.1655 156.559 26.7189C157.873 26.4824 159.041 25.9228 159.998 25.0348C161.272 23.8526 161.656 21.9978 160.939 20.4346C159.985 18.3538 157.492 18.1042 155.41 18.0937L150.25 18.0727C150.113 18.0727 149.891 17.9466 149.826 17.8546C149.585 17.5157 150.291 16.717 150.594 16.4701C150.999 16.1364 154.255 17.7049 157.906 15.6583C159.376 14.8333 160.247 13.4961 160.342 11.8593C160.434 10.325 159.815 8.91943 158.544 7.98414L157.673 7.3431C159.176 6.91223 161.615 6.33161 161.894 4.58451C162.021 3.78846 161.829 3.0686 161.25 2.53002ZM154.982 14.7151C154.801 15.5348 154.296 16.3203 153.398 16.2546C151.713 16.1338 151.884 12.524 151.857 12.3086L151.754 11.4337C151.7 10.9976 151.895 8.12076 152.679 7.30631C153.195 6.77036 154.039 6.83341 154.493 7.39039C154.861 7.83964 155.034 8.38085 155.12 8.95621C155.412 10.8951 155.407 12.7998 154.982 14.7151ZM10.378 18.254C10.3644 19.163 10.0183 19.9512 9.28554 20.5029L16.635 20.4976C16.1267 19.9039 15.7129 19.5361 15.6399 18.9029C15.5264 17.9177 15.5074 16.9561 15.502 15.9499L15.4615 10.0623C15.4561 9.07181 15.0099 8.13126 14.2988 7.47183C13.5146 6.74409 12.5195 6.54967 11.4541 6.47611C9.23687 6.32111 7.12234 7.59794 6.56261 9.71548C7.34677 9.1769 7.9092 8.80383 8.74474 8.96935C10.2617 9.26885 10.4834 10.656 10.4645 11.9513L10.378 18.254ZM29.0545 17.2845C26.1909 17.3765 24.0223 15.2248 24.0277 12.5003L31.7558 12.4951C32.0478 11.1683 31.7882 9.83108 31.0554 8.69086C29.3519 6.23966 25.5474 5.98219 23.0029 7.12504C19.5878 8.66196 18.4683 12.7158 19.4526 16.0156C20.2286 18.6218 22.4757 20.4319 25.2418 20.7157C28.4461 21.0441 31.2501 19.7331 32.0532 16.4412C31.0744 16.8852 30.1739 17.2477 29.0545 17.2845ZM25.35 7.30894C25.5744 7.08563 25.9233 6.9385 26.2315 6.95427C26.5073 6.97003 26.8994 7.16707 27.0806 7.43505C27.9242 8.69612 27.8972 10.3303 27.7079 11.9434L23.9629 11.9486C23.8574 10.3381 24.1008 8.54374 25.35 7.30894ZM69.774 20.5029H77.256C76.7855 20.0799 76.534 19.825 76.3366 19.3837C76.2339 18.8109 76.1338 18.2671 76.1284 17.676L76.0798 10.6245C76.0689 8.84324 75.3253 7.1986 73.4488 6.6968C70.6772 5.95592 67.8839 7.03834 67.1133 9.80218C68.0516 8.91681 69.2062 8.6462 70.2202 9.31352C70.7556 9.66294 70.8664 10.2803 71.0233 10.903C71.0611 13.3568 71.0909 15.7817 70.9854 18.2382C70.9449 19.1761 70.5501 19.9144 69.774 20.5029ZM112.708 12.2271C112.367 9.51581 110.418 7.35098 107.668 6.72833C105.91 6.32899 104.158 6.39204 102.46 6.99368C98.3364 8.45441 97.3765 13.1388 98.8042 16.7775C99.3558 18.1857 100.4 19.2549 101.765 19.9354C103.809 20.9521 106.108 21.0546 108.322 20.3163C111.951 19.1052 113.141 15.6451 112.708 12.2271ZM107.284 17.6996C107.111 18.6086 106.619 20.2559 105.526 20.2848C104.31 20.3163 103.696 18.4458 103.623 17.4921L103.301 13.3122L103.725 9.22419C103.782 8.67247 104.077 8.11287 104.334 7.63997C104.577 7.19334 105.064 6.97266 105.526 6.98317C105.981 6.99368 106.448 7.25902 106.665 7.69777C107.181 8.74341 107.4 9.82845 107.508 10.9844C107.719 13.2491 107.708 15.4639 107.284 17.6996ZM142.898 6.99893C141.479 8.05507 140.989 9.49742 140.776 11.2603C142.093 10.2646 143.639 10.2199 145.159 11.0028L146.162 6.9385C145.135 6.30271 143.872 6.32111 142.898 6.99893ZM173.056 6.83604C171.804 6.46298 170.528 6.41043 169.2 6.54967C166.418 6.8413 164.168 8.68035 163.468 11.3155C162.638 14.4392 163.487 18.275 166.656 19.8881C169.838 21.5065 174.359 20.9626 176.482 18.0175C177.504 16.5988 177.766 15.012 177.785 13.32C177.818 10.3145 176.052 7.73455 173.056 6.83604ZM172.353 17.274C172.202 18.3328 171.774 20.2559 170.476 20.2559C169.96 20.2585 169.46 19.9748 169.233 19.4572C168.703 18.2487 168.505 16.9666 168.416 15.6425C168.305 13.9847 167.997 7.25114 170.32 6.97266C171.412 6.83867 172.077 8.26262 172.239 9.18478C172.71 11.8751 172.737 14.5732 172.353 17.274ZM194.596 11.4547C194.115 9.42123 192.741 7.85541 190.754 7.05673C189.342 6.4945 187.896 6.39204 186.373 6.53391C183.529 6.79926 181.203 8.66196 180.516 11.3706C179.692 14.6258 180.619 18.5036 184.034 20.0431C186.076 20.9653 188.328 21.0231 190.486 20.2743C194.285 18.9528 195.421 14.9489 194.596 11.4547ZM187.549 20.2901C186.343 20.3374 185.824 18.338 185.662 17.3817C185.389 15.7844 185.392 14.2107 185.432 12.5844C185.47 11.0028 185.54 8.66196 186.581 7.41929C187.063 6.84655 187.893 6.8124 188.417 7.35886C188.92 7.8843 189.25 8.6173 189.329 9.35818L189.748 13.3253C189.691 14.7834 189.653 20.206 187.549 20.2901ZM1.02211 18.5745C0.938288 19.3679 0.670592 19.9827 0.016224 20.5002H7.25213C6.18946 19.4966 6.27869 18.6008 6.13538 17.3213L6.10834 12.855C6.09752 10.7427 6.17053 8.70663 6.32736 6.59171L0 7.23013C0.746304 8.38085 1.11405 9.52895 1.02482 10.861V18.5745H1.02211ZM34.4922 20.5002H41.7119C41.0197 19.9853 40.7925 19.3154 40.6979 18.4983L40.6655 10.6797C40.6601 9.30563 40.7033 8.04982 40.8034 6.59959L34.4571 7.24063C34.9979 8.01304 35.3873 8.78544 35.4332 9.71023C35.5819 12.6685 35.5387 15.6057 35.4873 18.5824C35.4738 19.381 35.1006 19.9748 34.4922 20.5002ZM121.729 17.7627C121.35 17.4054 121.118 16.7118 121.126 16.1627L121.277 6.59171L114.958 7.23801C115.677 8.32568 116.018 9.36343 115.985 10.5877L116.077 16.5857C116.072 18.1699 116.602 19.7357 118.2 20.382C120.866 21.4618 124.314 20.3978 125.019 17.4211C124.108 18.3643 122.716 18.6848 121.729 17.7627ZM130.687 17.6444C130.517 16.9955 130.46 16.3597 130.492 15.6661L130.655 6.59434L124.249 7.24063C124.803 7.79235 125.052 8.35458 125.217 9.02977C125.328 9.89939 125.428 10.7348 125.43 11.6255L125.447 20.7866L131.917 19.5098C131.247 18.8898 130.849 18.3958 130.687 17.6444ZM134.256 20.474H141.779C141.338 20.1351 140.96 19.8198 140.792 19.3101C140.657 18.895 140.494 18.4116 140.494 17.9518L140.53 8.40187C140.532 7.77659 140.603 7.21962 140.64 6.59171L134.213 7.24063C135.116 7.94736 135.368 9.71548 135.368 10.7743V17.6234C135.37 18.12 135.281 18.6297 135.203 19.1157C135.108 19.6911 134.759 20.0536 134.256 20.474Z" fill="white"></path>
    <path d="M202.898 9.28987C202.454 11.3417 202.216 15.54 203.3 17.295C203.698 17.9387 204.396 18.2776 205.101 18.3091C205.864 18.3459 206.448 17.9597 207.059 17.3896C206.694 19.121 205.277 20.3584 203.549 20.6841C202.016 20.9758 200.418 20.5975 199.28 19.5597C198.141 18.5219 197.59 17.1899 197.395 15.7318C196.935 12.2902 198.071 8.29678 201.765 7.00418C203.46 6.41043 205.683 6.195 207.448 6.98317C207.478 5.70371 207.47 4.45052 207.348 3.18945C207.213 2.24628 206.951 1.43709 206.337 0.654179L212.692 0L212.508 4.48993V15.942C212.505 16.8037 212.767 17.5788 212.948 18.3958C213.24 18.8109 213.554 19.1078 214 19.4546L207.467 20.7288L207.448 10.79C207.448 10.0124 207.348 9.26097 207.173 8.5306C206.951 7.6137 206.188 7.03308 205.234 6.98054C204.653 6.94901 203.987 7.06724 203.649 7.57955C203.311 8.09186 203.025 8.68298 202.895 9.28987H202.898Z" fill="currentcolor"></path>
    <path d="M93.0553 7.15626C96.1919 9.08202 96.2649 13.8688 95.0022 16.764C94.2315 18.5321 92.8146 19.8405 90.9002 20.3791C88.7559 20.9834 86.2493 20.9912 84.2862 19.8615C84.0429 19.7223 83.7265 19.6172 83.4534 19.7065L80.3167 20.739L80.5114 18.0382L80.5493 9.949L80.5195 4.11919C80.5168 3.39145 80.3708 2.67159 80.2086 1.97274C80.0869 1.45518 79.7435 1.06372 79.373 0.661758L85.814 -0.00292969L85.6301 4.48963L85.6085 16.123C85.6085 17.0662 85.6761 17.9437 85.9005 18.8238C86.1249 19.7039 86.8739 20.2293 87.7933 20.2661C88.4098 20.2924 89.0425 20.1715 89.4157 19.6566C89.9376 18.9367 90.1701 18.1144 90.3053 17.2317C90.6406 15.0301 90.6812 12.8127 90.1025 10.6741C89.8673 9.80976 89.1967 9.21075 88.4666 9.01634C87.5067 8.76149 86.7631 9.1477 86.0168 9.79399C86.2926 8.65378 87.0037 7.67645 88.0258 7.10634C89.5536 6.25249 91.5573 6.2341 93.058 7.15363L93.0553 7.15626Z" fill="currentcolor"></path>
    <path d="M161.25 2.53027L157.849 3.58642C158.462 4.57426 158.462 5.746 157.692 6.58934C157.362 6.94664 156.943 7.0491 156.486 6.91511C153.863 6.14534 151.159 6.28983 148.85 7.74794C147.479 8.61493 146.751 10.0074 146.746 11.5837C146.741 13.8562 148.074 15.1699 150.077 16.1551C149.207 17.1324 148.122 17.7892 146.995 18.4355C146.773 20.3849 148.228 21.9192 150.172 21.9297L155.131 21.956C155.918 21.9612 156.699 22.0427 157.408 22.3133C158.333 22.668 158.711 23.6006 158.371 24.4781C158.065 25.2715 157.43 25.8285 156.564 26.0965C154.658 26.6929 152.549 26.6272 150.683 25.9205C149.934 25.6341 149.437 24.9957 149.293 24.3809C149.109 23.598 149.431 22.9648 149.937 22.2791C148.647 22.1609 146.397 22.7941 146.308 24.197C146.224 25.5132 148.017 26.22 149.174 26.4932C151.602 27.0712 154.09 27.1658 156.559 26.7191C157.873 26.4827 159.041 25.9231 159.998 25.0351C161.272 23.8528 161.656 21.998 160.939 20.4348C159.985 18.3541 157.492 18.1045 155.41 18.094L150.25 18.0729C150.113 18.0729 149.891 17.9468 149.826 17.8549C149.585 17.516 150.291 16.7173 150.594 16.4703C150.999 16.1367 154.255 17.7051 157.905 15.6585C159.376 14.8336 160.247 13.4963 160.342 11.8596C160.434 10.3253 159.814 8.91969 158.544 7.98439L157.673 7.34335C159.176 6.91249 161.615 6.33187 161.894 4.58476C162.021 3.78871 161.829 3.06885 161.25 2.53027ZM154.982 14.7153C154.801 15.535 154.296 16.3206 153.398 16.2549C151.713 16.134 151.884 12.5242 151.857 12.3088L151.754 11.4339C151.7 10.9978 151.894 8.12101 152.679 7.30657C153.195 6.77062 154.039 6.83367 154.493 7.39064C154.861 7.8399 155.034 8.38111 155.12 8.95647C155.412 10.8954 155.407 12.8001 154.982 14.7153Z" fill="currentcolor"></path>
    <path d="M59.2448 4.51908C59.3557 3.78609 59.1799 3.04784 58.5824 2.53027L55.1942 3.58642C55.8053 4.55849 55.7999 5.70133 55.078 6.5473C54.6859 7.00707 54.2181 7.04122 53.6692 6.87571C51.2761 6.15847 48.7533 6.33975 46.5874 7.50361C45.0002 8.36009 44.0916 9.82608 44.0862 11.5863C44.0808 13.9456 45.5085 15.2119 47.5311 16.2155L44.3242 18.4539C44.1403 20.4322 45.6032 21.9297 47.5879 21.935L52.09 21.9481C52.9634 21.9507 53.799 22.0033 54.6156 22.2529C55.562 22.5392 56.0298 23.4377 55.7621 24.3441C55.5349 25.1034 55.0185 25.6656 54.2397 25.9389C52.3118 26.6193 50.2027 26.7165 48.2801 26.0308C47.4365 25.7313 46.7632 25.1454 46.6117 24.2942C46.482 23.5612 46.8091 22.957 47.2553 22.2765C45.9195 22.1583 43.5454 22.865 43.6509 24.3651C43.7428 25.6945 45.8222 26.4065 47.0119 26.6246C48.829 26.9556 50.6704 27.0607 52.5146 26.9241C55.5512 26.7008 58.9582 25.0062 58.6148 21.646C58.3498 19.0371 55.927 18.1045 53.4961 18.0966L47.5879 18.0756C47.4527 18.0756 47.2283 17.939 47.1661 17.8496C46.9281 17.5133 47.642 16.7147 47.9367 16.473C48.3558 16.1314 51.6196 17.7235 55.3051 15.6244C56.7085 14.8257 57.5467 13.541 57.6819 11.9857C57.8198 10.3857 57.1736 8.91969 55.8459 7.94499L55.0212 7.3381C56.6814 6.87308 58.9798 6.30822 59.2448 4.51908ZM52.3902 14.4264C52.2063 15.3354 51.7899 16.3337 50.7326 16.2549C49.1156 16.1367 49.2346 12.7187 49.1941 12.3088L49.1048 11.3945C49.0237 10.567 49.2481 9.76828 49.3428 8.93282C49.4104 8.33644 49.5888 7.74794 50.0107 7.31708C50.5488 6.76799 51.4059 6.83104 51.8764 7.43268C52.2469 7.91083 52.4118 8.4967 52.4902 9.10359C52.7255 10.8954 52.7471 12.653 52.3902 14.4264Z" fill="currentcolor"></path>
    <path d="M112.708 12.2272C112.367 9.51591 110.418 7.35107 107.668 6.72842C105.91 6.32908 104.158 6.39213 102.46 6.99377C98.3362 8.45451 97.3763 13.1389 98.804 16.7776C99.3556 18.1858 100.399 19.255 101.765 19.9355C103.809 20.9522 106.108 21.0547 108.322 20.3164C111.951 19.1053 113.141 15.6452 112.708 12.2272ZM107.284 17.6997C107.111 18.6087 106.619 20.256 105.526 20.2849C104.309 20.3164 103.696 18.4458 103.623 17.4922L103.301 13.3122L103.725 9.22428C103.782 8.67257 104.077 8.11297 104.334 7.64007C104.577 7.19344 105.064 6.97275 105.526 6.98326C105.98 6.99377 106.448 7.25912 106.665 7.69787C107.181 8.7435 107.4 9.82855 107.508 10.9845C107.719 13.2492 107.708 15.4639 107.284 17.6997Z" fill="currentcolor"></path>
    <path d="M173.056 6.83643C171.804 6.46337 170.528 6.41082 169.2 6.55007C166.418 6.84169 164.168 8.68075 163.468 11.3159C162.638 14.4396 163.487 18.2754 166.656 19.8885C169.838 21.5069 174.359 20.963 176.482 18.0179C177.504 16.5992 177.766 15.0124 177.785 13.3204C177.818 10.3149 176.052 7.73494 173.056 6.83643ZM172.353 17.2744C172.202 18.3332 171.774 20.2563 170.476 20.2563C169.96 20.2589 169.46 19.9752 169.233 19.4576C168.703 18.2491 168.505 16.967 168.416 15.6429C168.305 13.9851 167.997 7.25153 170.32 6.97305C171.412 6.83906 172.077 8.26302 172.239 9.18517C172.71 11.8755 172.737 14.5736 172.353 17.2744Z" fill="currentcolor"></path>
    <path d="M194.596 11.4547C194.115 9.4212 192.741 7.85538 190.754 7.0567C189.342 6.49448 187.896 6.39201 186.373 6.53388C183.529 6.79923 181.203 8.66194 180.517 11.3706C179.692 14.6257 180.619 18.5035 184.034 20.0431C186.076 20.9652 188.328 21.023 190.486 20.2743C194.285 18.9528 195.421 14.9489 194.596 11.4547ZM187.55 20.29C186.344 20.3373 185.825 18.338 185.662 17.3817C185.389 15.7843 185.392 14.2106 185.432 12.5844C185.47 11.0028 185.541 8.66194 186.582 7.41926C187.063 6.84652 187.893 6.81237 188.418 7.35883C188.921 7.88428 189.25 8.61727 189.329 9.35815L189.748 13.3253C189.691 14.7834 189.653 20.206 187.55 20.29Z" fill="currentcolor"></path>
    <path d="M60.4941 20.4789C60.9024 20.1242 61.2837 19.8851 61.3811 19.4306C61.5027 18.8631 61.6487 18.2877 61.6487 17.6756V4.31091C61.6487 3.65935 61.4919 3.06297 61.4135 2.44295C61.327 1.74673 61.016 1.19239 60.5023 0.656435L66.9134 0.00488281C66.854 0.990093 66.7539 1.87809 66.7512 2.85805L66.7188 16.3961C66.7188 17.4181 66.762 18.3482 67.0216 19.3202C67.146 19.78 67.5597 20.0874 67.941 20.4841H60.4941V20.4789Z" fill="currentcolor"></path>
    <path d="M29.0547 17.2844C26.1912 17.3764 24.0226 15.2247 24.028 12.5002L31.756 12.495C32.0481 11.1682 31.7885 9.83098 31.0557 8.69077C29.3522 6.23957 25.5476 5.9821 23.0032 7.12494C19.588 8.66187 18.4686 12.7157 19.4528 16.0155C20.2289 18.6217 22.4759 20.4318 25.2421 20.7156C28.4463 21.044 31.2504 19.733 32.0535 16.4411C31.0746 16.8851 30.1742 17.2476 29.0547 17.2844ZM25.3502 7.30885C25.5747 7.08553 25.9235 6.93841 26.2317 6.95417C26.5076 6.96993 26.8996 7.16698 27.0808 7.43495C27.9245 8.69602 27.8974 10.3302 27.7081 11.9433L23.9631 11.9485C23.8576 10.338 24.101 8.54364 25.3502 7.30885Z" fill="currentcolor"></path>
    <path d="M16.6349 20.4999L9.28543 20.5052C10.0182 19.9535 10.3643 19.1653 10.3778 18.2589L10.4644 11.9562C10.4833 10.661 10.2589 9.27379 8.74463 8.97428C7.90909 8.80877 7.34666 9.18184 6.5625 9.72042C7.12223 7.60287 9.23676 6.32867 11.454 6.48105C12.5167 6.55461 13.5145 6.74902 14.2986 7.47677C15.0098 8.1362 15.456 9.07675 15.4614 10.0672L15.5019 15.9522C15.5073 16.9611 15.5263 17.9226 15.6398 18.9078C15.7128 19.541 16.1265 19.9062 16.6349 20.5026V20.4999Z" fill="currentcolor"></path>
    <path d="M77.2562 20.5007H69.7742C70.5503 19.9175 70.9451 19.1766 70.9856 18.2387C71.0884 15.7822 71.0613 13.3573 71.0235 10.9035C70.8667 10.2808 70.7585 9.66342 70.2231 9.314C69.2064 8.64668 68.0518 8.91729 67.1162 9.80529C67.8869 7.03882 70.6801 5.95903 73.4517 6.69991C75.3283 7.20171 76.0692 8.84635 76.0827 10.6276L76.1313 17.6817C76.1368 18.2728 76.2368 18.814 76.3369 19.3894C76.5342 19.8308 76.7857 20.0856 77.2562 20.506V20.5007Z" fill="currentcolor"></path>
    <path d="M125.02 17.4242C124.314 20.4008 120.866 21.4648 118.2 20.385C116.602 19.7387 116.072 18.1729 116.077 16.5861L115.986 10.5881C116.018 9.36382 115.68 8.32607 114.958 7.2384L121.277 6.59473L121.126 16.1657C121.118 16.7148 121.35 17.4084 121.732 17.7657C122.718 18.6905 124.108 18.37 125.022 17.4268L125.02 17.4242Z" fill="currentcolor"></path>
    <path d="M134.256 20.4763C134.759 20.0533 135.108 19.6934 135.203 19.118C135.281 18.632 135.37 18.1223 135.37 17.6258V10.7766C135.367 9.71782 135.116 7.95233 134.213 7.2456L140.64 6.59668C140.602 7.22459 140.529 7.78156 140.527 8.40684L140.492 17.9568C140.492 18.4166 140.654 18.9 140.789 19.3151C140.957 19.8248 141.335 20.14 141.773 20.4816H134.251L134.256 20.4763Z" fill="currentcolor"></path>
    <path d="M41.7121 20.5029H34.4897C35.1008 19.9774 35.4713 19.3811 35.4848 18.585C35.5335 15.6084 35.5795 12.6711 35.4307 9.71287C35.3848 8.78809 34.9954 8.01568 34.4546 7.24065L40.8009 6.59961C40.7008 8.05247 40.6576 9.30828 40.663 10.6797L40.6927 18.4983C40.7874 19.3154 41.0172 19.9853 41.7094 20.5029H41.7121Z" fill="currentcolor"></path>
    <path d="M7.25213 20.5033H0.016224C0.667888 19.9857 0.935584 19.3709 1.02211 18.5775V10.864C1.11405 9.53196 0.746304 8.38124 0 7.23314L6.32736 6.59473C6.17053 8.70964 6.09752 10.7457 6.11104 12.858L6.13538 17.3243C6.27869 18.6038 6.18946 19.497 7.25483 20.5033H7.25213Z" fill="currentcolor"></path>
    <path d="M131.918 19.5121L125.447 20.789L125.431 11.6304C125.431 10.7398 125.328 9.90173 125.217 9.03212C125.052 8.35692 124.803 7.79469 124.249 7.2456L130.655 6.59668L130.49 15.6685C130.46 16.3621 130.514 16.9979 130.685 17.6468C130.847 18.3982 131.244 18.8921 131.915 19.5121H131.918Z" fill="currentcolor"></path>
    <path d="M40.6383 3.50779C40.3274 4.85556 38.6131 5.38363 37.3043 5.03421C36.4607 4.80827 35.7522 4.32223 35.59 3.57347C35.398 2.6986 35.6332 1.86052 36.3958 1.37711C37.4152 0.733439 38.7212 0.707167 39.7541 1.33507C40.5329 1.80797 40.8276 2.67759 40.6356 3.50779H40.6383Z" fill="currentcolor"></path>
    <path d="M145.159 11.0054C143.639 10.2198 142.093 10.2671 140.776 11.2628C140.989 9.49997 141.479 8.05762 142.899 6.99885C143.869 6.32102 145.135 6.30263 146.16 6.93842L145.156 11.0054H145.159Z" fill="currentcolor"></path>
  </g>
  <defs>
    <clipPath id="clip0_1223_5442">
      <rect width="214" height="27" fill="white"></rect>
    </clipPath>
  </defs>
</svg>